<?xml version="1.0" standalone="no"?>
<!DOCTYPE svg PUBLIC "-//W3C//DTD SVG 20010904//EN"
 "http://www.w3.org/TR/2001/REC-SVG-20010904/DTD/svg10.dtd">
<svg version="1.0" xmlns="http://www.w3.org/2000/svg"
 width="1451.000000pt" height="1672.000000pt" viewBox="0 0 1451.000000 1672.000000"
 preserveAspectRatio="xMidYMid meet">

<g transform="translate(0.000000,1674.000000) scale(0.100000,-0.100000)"
fill="#000000" stroke="none">
<path d="M6965 16516 c-307 -178 -814 -471 -1195 -691 -135 -78 -396 -228
-580 -335 -184 -107 -461 -266 -615 -355 -154 -89 -431 -249 -615 -355 -414
-239 -737 -426 -1120 -647 -618 -357 -762 -440 -1010 -583 -140 -81 -383 -222
-540 -312 -457 -265 -749 -433 -995 -574 l-230 -132 -3 -4160 -2 -4160 247
-143 c137 -78 374 -215 528 -304 154 -89 431 -249 615 -355 184 -107 445 -257
580 -335 135 -78 322 -186 415 -240 94 -54 314 -181 490 -283 176 -101 435
-251 575 -332 140 -81 417 -241 615 -355 353 -204 568 -328 1030 -595 743
-430 1084 -626 1550 -895 132 -76 308 -178 392 -226 83 -49 154 -89 158 -89 3
0 90 49 193 109 228 132 648 375 912 527 107 61 337 194 510 294 173 100 450
260 615 355 165 95 440 254 610 352 171 99 461 266 645 373 644 372 827 478
1160 670 184 107 461 266 615 355 154 89 431 249 615 355 184 107 445 257 580
335 135 78 356 206 493 284 l247 143 -2 4160 -3 4159 -265 153 c-146 84 -416
239 -600 346 -399 230 -924 534 -1290 745 -146 84 -407 235 -580 335 -173 100
-403 233 -510 294 -107 62 -314 181 -460 266 -597 345 -840 485 -1125 650
-165 95 -426 246 -580 335 -390 225 -813 469 -1195 690 -179 103 -382 221
-452 261 -70 41 -131 74 -135 73 -4 0 -134 -74 -288 -163z m509 -2038 c282
-163 847 -489 1131 -653 127 -73 388 -224 580 -335 193 -111 469 -271 615
-355 146 -84 407 -235 580 -335 173 -100 405 -234 515 -297 436 -251 1138
-657 1518 -877 l237 -138 -2 -3120 -3 -3121 -260 -150 c-275 -158 -697 -402
-1265 -730 -190 -109 -464 -268 -610 -352 -146 -84 -407 -235 -580 -335 -173
-100 -434 -251 -580 -335 -146 -84 -404 -233 -575 -332 -355 -205 -851 -491
-1235 -713 -145 -84 -270 -155 -277 -157 -7 -3 -151 75 -320 173 -299 173
-546 315 -1168 673 -165 95 -306 178 -312 183 -10 8 -13 229 -13 1044 0 569 3
1034 7 1034 9 0 106 -54 458 -258 176 -102 453 -262 615 -355 162 -94 391
-226 507 -294 117 -68 215 -123 218 -123 3 0 101 56 218 123 116 68 345 200
507 294 552 318 945 545 1070 618 69 40 258 149 420 243 162 93 453 261 645
372 193 111 437 252 543 312 l192 111 0 2076 0 2077 -162 94 c-90 51 -273 157
-408 235 -135 78 -396 229 -580 335 -184 106 -461 266 -615 355 -475 275 -802
464 -1005 581 -107 61 -336 193 -509 293 -172 99 -315 181 -316 181 -1 0 -144
-81 -316 -181 -173 -100 -433 -250 -579 -334 -146 -84 -407 -235 -580 -335
-173 -100 -434 -251 -580 -335 -146 -84 -422 -244 -615 -355 -192 -111 -479
-277 -637 -368 l-288 -166 0 -3114 c0 -2766 -2 -3113 -15 -3108 -14 5 -241
135 -885 507 -140 81 -399 230 -575 332 l-320 184 -3 3121 -2 3120 37 22 c21
13 187 108 368 213 182 105 485 280 675 390 190 110 464 268 610 352 146 84
407 235 580 335 173 100 434 251 580 335 146 84 405 233 575 332 171 99 459
265 640 370 337 194 775 447 1125 650 107 62 199 112 204 113 5 0 104 -55 220
-122z m-14 -4145 c85 -49 259 -150 385 -223 127 -73 345 -199 485 -280 140
-81 362 -209 493 -285 l237 -137 -2 -1040 -3 -1040 -295 -170 c-162 -93 -425
-245 -585 -337 -159 -92 -429 -248 -599 -346 -170 -98 -315 -178 -321 -178
-10 0 -118 61 -920 524 -159 92 -423 244 -585 337 l-295 170 -3 1040 -2 1039
232 135 c128 75 384 222 568 328 184 106 445 257 580 335 432 251 421 245 450
230 14 -7 95 -53 180 -102z"/>
</g>
</svg>
